<svg aria-label="Arch Linux" viewBox="0 0 512 512" xmlns="http://www.w3.org/2000/svg"><path d="M256 19.893c-20.66 51.648-33.94 84.113-57.551 134.286 14.757 16.232 32.465 33.94 60.502 53.124-30.989-11.805-51.648-25.086-66.405-38.367-30.989 63.453-78.21 151.993-172.653 324.647 73.783-44.27 132.81-70.832 187.41-81.162-2.951-10.33-4.427-20.66-4.427-32.465v-1.475c1.476-48.698 26.562-85.59 56.075-82.638 29.514 1.476 53.124 42.794 51.649 91.492l-2.952 25.086c53.125 10.33 110.676 38.367 184.46 79.686l-39.844-73.783c-19.184-14.757-39.843-33.94-81.162-56.076 28.038 7.378 48.697 16.233 64.93 25.087C309.124 152.703 298.794 121.715 256 18.417Z" fill="#1793d1" style="stroke-width:1.47567"/></svg>